<svg width="20" height="18" viewBox="0 0 20 18" fill="none" xmlns="http://www.w3.org/2000/svg">
<path d="M19.25 5.71997C19.25 6.87997 18.81 8.04997 17.92 8.93997L16.44 10.42L10.07 16.79C10.04 16.82 10.03 16.83 10 16.85C9.97 16.83 9.96 16.82 9.93 16.79L2.08 8.93997C1.19 8.04997 0.75 6.88997 0.75 5.71997C0.75 4.54997 1.19 3.37998 2.08 2.48998C3.86 0.719976 6.74 0.719976 8.52 2.48998L9.99 3.96997L11.47 2.48998C13.25 0.719976 16.12 0.719976 17.9 2.48998C18.81 3.37998 19.25 4.53997 19.25 5.71997Z" stroke="#353535" stroke-width="1.5" stroke-linecap="round" stroke-linejoin="round"/>
</svg>
