<svg width="127" height="21" viewBox="0 0 127 21" fill="none" xmlns="http://www.w3.org/2000/svg">
<path d="M0.264205 16V1.45455H3.33949V7.8679H3.53125L8.76562 1.45455H12.4517L7.05398 7.96733L12.5156 16H8.83665L4.85227 10.0199L3.33949 11.8665V16H0.264205ZM14.68 16V5.09091H17.7056V16H14.68ZM16.1999 3.68466C15.7501 3.68466 15.3642 3.53551 15.0423 3.23722C14.725 2.93419 14.5664 2.57197 14.5664 2.15057C14.5664 1.7339 14.725 1.37642 15.0423 1.07812C15.3642 0.775094 15.7501 0.623579 16.1999 0.623579C16.6497 0.623579 17.0333 0.775094 17.3505 1.07812C17.6725 1.37642 17.8335 1.7339 17.8335 2.15057C17.8335 2.57197 17.6725 2.93419 17.3505 3.23722C17.0333 3.53551 16.6497 3.68466 16.1999 3.68466ZM25.9318 5.09091V7.36364H19.3622V5.09091H25.9318ZM20.8537 2.47727H23.8793V12.6477C23.8793 12.9271 23.9219 13.1449 24.0071 13.3011C24.0923 13.4527 24.2107 13.5592 24.3622 13.6207C24.5185 13.6823 24.6984 13.7131 24.902 13.7131C25.044 13.7131 25.1861 13.7012 25.3281 13.6776C25.4702 13.6491 25.5791 13.6278 25.6548 13.6136L26.1307 15.8651C25.9792 15.9124 25.7661 15.9669 25.4915 16.0284C25.2169 16.0947 24.883 16.1349 24.4901 16.1491C23.7609 16.1776 23.1217 16.0805 22.5724 15.858C22.0279 15.6354 21.6042 15.2898 21.3011 14.821C20.9981 14.3523 20.849 13.7604 20.8537 13.0455V2.47727ZM32.7145 16.2131C31.5971 16.2131 30.6359 15.9763 29.831 15.5028C29.0308 15.0246 28.4152 14.3617 27.9844 13.5142C27.5582 12.6667 27.3452 11.6913 27.3452 10.5881C27.3452 9.47064 27.5606 8.49053 27.9915 7.64773C28.4271 6.80019 29.045 6.13968 29.8452 5.66619C30.6454 5.18797 31.5971 4.94886 32.7003 4.94886C33.652 4.94886 34.4853 5.12169 35.2003 5.46733C35.9152 5.81297 36.4811 6.2983 36.8977 6.9233C37.3144 7.5483 37.544 8.2822 37.5866 9.125H34.7315C34.651 8.58049 34.438 8.14252 34.0923 7.81108C33.7514 7.47491 33.304 7.30682 32.75 7.30682C32.2812 7.30682 31.8717 7.43466 31.5213 7.69034C31.1757 7.94129 30.9058 8.30824 30.7116 8.79119C30.5175 9.27415 30.4205 9.8589 30.4205 10.5455C30.4205 11.2415 30.5152 11.8333 30.7045 12.321C30.8987 12.8087 31.1709 13.1804 31.5213 13.4361C31.8717 13.6918 32.2812 13.8196 32.75 13.8196C33.0956 13.8196 33.4058 13.7486 33.6804 13.6065C33.9598 13.4645 34.1894 13.2585 34.3693 12.9886C34.554 12.714 34.6747 12.3849 34.7315 12.0014H37.5866C37.5393 12.8348 37.312 13.5687 36.9048 14.2031C36.5024 14.8329 35.946 15.3253 35.2358 15.6804C34.5256 16.0355 33.6851 16.2131 32.7145 16.2131ZM42.5494 9.69318V16H39.5238V1.45455H42.4641V7.01562H42.592C42.8382 6.37169 43.2359 5.86742 43.7852 5.50284C44.3344 5.13352 45.0233 4.94886 45.8519 4.94886C46.6095 4.94886 47.27 5.11458 47.8335 5.44602C48.4016 5.77273 48.842 6.24384 49.1545 6.85938C49.4717 7.47017 49.628 8.2017 49.6232 9.05398V16H46.5977V9.59375C46.6024 8.9214 46.4319 8.3982 46.0863 8.02415C45.7454 7.65009 45.2672 7.46307 44.6516 7.46307C44.2397 7.46307 43.8751 7.55066 43.5579 7.72585C43.2454 7.90104 42.9992 8.15672 42.8192 8.4929C42.6441 8.82434 42.5541 9.22443 42.5494 9.69318ZM56.9759 16.2131C55.8537 16.2131 54.8878 15.9858 54.0781 15.5312C53.2732 15.072 52.6529 14.4233 52.2173 13.5852C51.7817 12.7424 51.5639 11.7457 51.5639 10.5952C51.5639 9.47301 51.7817 8.48816 52.2173 7.64062C52.6529 6.79309 53.2661 6.13258 54.0568 5.65909C54.8523 5.18561 55.785 4.94886 56.8551 4.94886C57.5748 4.94886 58.2448 5.06487 58.8651 5.29688C59.4901 5.52415 60.0346 5.86742 60.4986 6.3267C60.9673 6.78598 61.3319 7.36364 61.5923 8.05966C61.8527 8.75095 61.983 9.56061 61.983 10.4886V11.3196H52.7713V9.4446H59.1349C59.1349 9.009 59.0402 8.62311 58.8509 8.28693C58.6615 7.95076 58.3987 7.68797 58.0625 7.49858C57.7311 7.30445 57.3452 7.20739 56.9048 7.20739C56.4455 7.20739 56.0384 7.31392 55.6832 7.52699C55.3329 7.73532 55.0582 8.01705 54.8594 8.37216C54.6605 8.72254 54.5587 9.11316 54.554 9.54403V11.3267C54.554 11.8665 54.6534 12.3329 54.8523 12.7259C55.0559 13.1188 55.3423 13.4219 55.7116 13.6349C56.081 13.848 56.5189 13.9545 57.0256 13.9545C57.3617 13.9545 57.6695 13.9072 57.9489 13.8125C58.2282 13.7178 58.4673 13.5758 58.6662 13.3864C58.8651 13.197 59.0166 12.965 59.1207 12.6903L61.919 12.875C61.777 13.5473 61.4858 14.1345 61.0455 14.6364C60.6098 15.1335 60.0464 15.5218 59.3551 15.8011C58.6686 16.0758 57.8755 16.2131 56.9759 16.2131ZM66.983 9.69318V16H63.9574V5.09091H66.8409V7.01562H66.9688C67.2102 6.38116 67.6151 5.87926 68.1832 5.50994C68.7514 5.13589 69.4403 4.94886 70.25 4.94886C71.0076 4.94886 71.6681 5.11458 72.2315 5.44602C72.795 5.77746 73.233 6.25095 73.5455 6.86648C73.858 7.47727 74.0142 8.20644 74.0142 9.05398V16H70.9886V9.59375C70.9934 8.92614 70.8229 8.4053 70.4773 8.03125C70.1316 7.65246 69.6558 7.46307 69.0497 7.46307C68.6425 7.46307 68.2827 7.55066 67.9702 7.72585C67.6624 7.90104 67.4209 8.15672 67.2457 8.4929C67.0753 8.82434 66.9877 9.22443 66.983 9.69318Z" fill="#111111"/>
<path d="M81.6119 16H76.4556V1.45455H81.6545C83.1175 1.45455 84.377 1.74574 85.4329 2.32812C86.4888 2.90578 87.3008 3.73674 87.869 4.82102C88.4419 5.9053 88.7283 7.20265 88.7283 8.71307C88.7283 10.2282 88.4419 11.5303 87.869 12.6193C87.3008 13.7083 86.484 14.544 85.4187 15.1264C84.3581 15.7088 83.0891 16 81.6119 16ZM79.5309 13.3651H81.484C82.3931 13.3651 83.1578 13.2041 83.7781 12.8821C84.4031 12.5554 84.8718 12.0511 85.1843 11.3693C85.5015 10.6828 85.6602 9.79735 85.6602 8.71307C85.6602 7.63826 85.5015 6.75994 85.1843 6.07812C84.8718 5.39631 84.4054 4.89441 83.7852 4.57244C83.1649 4.25047 82.4002 4.08949 81.4911 4.08949H79.5309V13.3651ZM90.9496 16V5.09091H93.9751V16H90.9496ZM92.4695 3.68466C92.0196 3.68466 91.6338 3.53551 91.3118 3.23722C90.9946 2.93419 90.8359 2.57197 90.8359 2.15057C90.8359 1.7339 90.9946 1.37642 91.3118 1.07812C91.6338 0.775094 92.0196 0.623579 92.4695 0.623579C92.9193 0.623579 93.3028 0.775094 93.62 1.07812C93.942 1.37642 94.103 1.7339 94.103 2.15057C94.103 2.57197 93.942 2.93419 93.62 3.23722C93.3028 3.53551 92.9193 3.68466 92.4695 3.68466ZM99.5096 16.206C98.8136 16.206 98.1933 16.0852 97.6488 15.8438C97.1043 15.5975 96.6734 15.2353 96.3562 14.7571C96.0437 14.2741 95.8874 13.6728 95.8874 12.9531C95.8874 12.3471 95.9987 11.8381 96.2212 11.4261C96.4438 11.0142 96.7468 10.6828 97.1303 10.4318C97.5138 10.1809 97.9495 9.99148 98.4371 9.86364C98.9296 9.7358 99.4457 9.64583 99.9854 9.59375C100.62 9.52746 101.131 9.46591 101.52 9.40909C101.908 9.34754 102.19 9.25758 102.365 9.1392C102.54 9.02083 102.627 8.84564 102.627 8.61364V8.57102C102.627 8.12121 102.485 7.7732 102.201 7.52699C101.922 7.28078 101.524 7.15767 101.008 7.15767C100.464 7.15767 100.03 7.27841 99.7085 7.51989C99.3865 7.75663 99.1734 8.05492 99.0692 8.41477L96.271 8.1875C96.413 7.52462 96.6924 6.9517 97.109 6.46875C97.5257 5.98106 98.0631 5.60701 98.7212 5.34659C99.3841 5.08144 100.151 4.94886 101.022 4.94886C101.628 4.94886 102.208 5.01989 102.762 5.16193C103.321 5.30398 103.816 5.52415 104.247 5.82244C104.682 6.12074 105.026 6.50426 105.277 6.97301C105.528 7.43703 105.653 7.99337 105.653 8.64205V16H102.784V14.4872H102.699C102.523 14.8281 102.289 15.1288 101.995 15.3892C101.702 15.6449 101.349 15.8461 100.937 15.9929C100.525 16.1349 100.049 16.206 99.5096 16.206ZM100.376 14.1179C100.821 14.1179 101.214 14.0303 101.555 13.8551C101.896 13.6752 102.163 13.4337 102.358 13.1307C102.552 12.8277 102.649 12.4844 102.649 12.1009V10.9432C102.554 11.0047 102.424 11.0616 102.258 11.1136C102.097 11.161 101.915 11.206 101.711 11.2486C101.508 11.2865 101.304 11.322 101.1 11.3551C100.897 11.3835 100.712 11.4096 100.547 11.4332C100.191 11.4853 99.8813 11.5682 99.6161 11.6818C99.351 11.7955 99.145 11.9493 98.9982 12.1435C98.8514 12.3329 98.7781 12.5696 98.7781 12.8537C98.7781 13.2656 98.9272 13.5805 99.2255 13.7983C99.5285 14.0114 99.9121 14.1179 100.376 14.1179ZM108 16V5.09091H110.934V6.99432H111.047C111.246 6.31723 111.58 5.80587 112.049 5.46023C112.517 5.10985 113.057 4.93466 113.668 4.93466C113.819 4.93466 113.983 4.94413 114.158 4.96307C114.333 4.98201 114.487 5.00805 114.62 5.04119V7.72585C114.478 7.68324 114.281 7.64536 114.03 7.61222C113.779 7.57907 113.55 7.5625 113.341 7.5625C112.896 7.5625 112.498 7.65956 112.148 7.85369C111.802 8.04309 111.528 8.30824 111.324 8.64915C111.125 8.99006 111.026 9.38305 111.026 9.82812V16H108ZM118.384 20.0909C118 20.0909 117.641 20.0601 117.304 19.9986C116.973 19.9418 116.698 19.8684 116.48 19.7784L117.162 17.5199C117.517 17.6288 117.837 17.688 118.121 17.6974C118.41 17.7069 118.658 17.6406 118.867 17.4986C119.08 17.3565 119.253 17.1151 119.385 16.7741L119.563 16.3125L115.65 5.09091H118.831L121.09 13.1023H121.203L123.483 5.09091H126.686L122.446 17.179C122.243 17.7661 121.966 18.2775 121.615 18.7131C121.27 19.1534 120.832 19.492 120.301 19.7287C119.771 19.9702 119.132 20.0909 118.384 20.0909Z" fill="#F08200"/>
</svg>
