<svg width="191" height="31" viewBox="0 0 191 31" fill="none" xmlns="http://www.w3.org/2000/svg">
<path d="M0.896307 24V2.18182H5.50923V11.8018H5.79688L13.6484 2.18182H19.1776L11.081 11.951L19.2734 24H13.755L7.77841 15.0298L5.50923 17.7997V24H0.896307ZM22.5201 24V7.63636H27.0584V24H22.5201ZM24.7999 5.52699C24.1252 5.52699 23.5463 5.30327 23.0634 4.85582C22.5875 4.40128 22.3496 3.85795 22.3496 3.22585C22.3496 2.60085 22.5875 2.06463 23.0634 1.61719C23.5463 1.16264 24.1252 0.935368 24.7999 0.935368C25.4746 0.935368 26.0499 1.16264 26.5257 1.61719C27.0087 2.06463 27.2502 2.60085 27.2502 3.22585C27.2502 3.85795 27.0087 4.40128 26.5257 4.85582C26.0499 5.30327 25.4746 5.52699 24.7999 5.52699ZM39.3977 7.63636V11.0455H29.5433V7.63636H39.3977ZM31.7805 3.71591H36.3189V18.9716C36.3189 19.3906 36.3828 19.7173 36.5107 19.9517C36.6385 20.179 36.8161 20.3388 37.0433 20.4311C37.2777 20.5234 37.5476 20.5696 37.853 20.5696C38.0661 20.5696 38.2791 20.5518 38.4922 20.5163C38.7053 20.4737 38.8686 20.4418 38.9822 20.4205L39.696 23.7976C39.4688 23.8686 39.1491 23.9503 38.7372 24.0426C38.3253 24.142 37.8246 24.2024 37.2351 24.2237C36.1413 24.2663 35.1825 24.1207 34.3587 23.7869C33.5419 23.4531 32.9063 22.9347 32.4517 22.2315C31.9972 21.5284 31.7734 20.6406 31.7805 19.5682V3.71591ZM49.5717 24.3196C47.8956 24.3196 46.4538 23.9645 45.2464 23.2543C44.0462 22.5369 43.1229 21.5426 42.4766 20.2713C41.8374 19 41.5178 17.5369 41.5178 15.8821C41.5178 14.206 41.8409 12.7358 42.4872 11.4716C43.1406 10.2003 44.0675 9.20952 45.2678 8.49929C46.468 7.78196 47.8956 7.4233 49.5504 7.4233C50.978 7.4233 52.228 7.68253 53.3004 8.20099C54.3729 8.71946 55.2216 9.44744 55.8466 10.3849C56.4716 11.3224 56.8161 12.4233 56.88 13.6875H52.5973C52.4766 12.8707 52.157 12.2138 51.6385 11.7166C51.1271 11.2124 50.456 10.9602 49.625 10.9602C48.9219 10.9602 48.3075 11.152 47.782 11.5355C47.2635 11.9119 46.8587 12.4624 46.5675 13.1868C46.2763 13.9112 46.1307 14.7884 46.1307 15.8182C46.1307 16.8622 46.2727 17.75 46.5568 18.4815C46.848 19.2131 47.2564 19.7706 47.782 20.1541C48.3075 20.5376 48.9219 20.7294 49.625 20.7294C50.1435 20.7294 50.6087 20.6229 51.0206 20.4098C51.4396 20.1967 51.7841 19.8878 52.054 19.483C52.331 19.071 52.5121 18.5774 52.5973 18.0021H56.88C56.8089 19.2521 56.468 20.353 55.8572 21.3047C55.2536 22.2493 54.419 22.9879 53.3537 23.5206C52.2884 24.0533 51.0277 24.3196 49.5717 24.3196ZM64.324 14.5398V24H59.7857V2.18182H64.1962V10.5234H64.388C64.7573 9.55753 65.3539 8.80114 66.1777 8.25426C67.0016 7.70028 68.035 7.4233 69.2779 7.4233C70.4142 7.4233 71.405 7.67187 72.2502 8.16903C73.1025 8.65909 73.763 9.36577 74.2317 10.2891C74.7076 11.2053 74.9419 12.3026 74.9348 13.581V24H70.3965V14.3906C70.4036 13.3821 70.1479 12.5973 69.6294 12.0362C69.1181 11.4751 68.4007 11.1946 67.4775 11.1946C66.8596 11.1946 66.3127 11.326 65.8368 11.5888C65.3681 11.8516 64.9988 12.2351 64.7289 12.7393C64.4661 13.2365 64.3311 13.8366 64.324 14.5398ZM85.9638 24.3196C84.2805 24.3196 82.8317 23.9787 81.6172 23.2969C80.4098 22.608 79.4794 21.6349 78.826 20.3778C78.1726 19.1136 77.8459 17.6186 77.8459 15.8928C77.8459 14.2095 78.1726 12.7322 78.826 11.4609C79.4794 10.1896 80.3991 9.19886 81.5852 8.48864C82.7784 7.77841 84.1776 7.4233 85.7827 7.4233C86.8622 7.4233 87.8672 7.5973 88.7976 7.94531C89.7351 8.28622 90.5518 8.80114 91.2479 9.49006C91.951 10.179 92.4979 11.0455 92.8885 12.0895C93.2791 13.1264 93.4744 14.3409 93.4744 15.733V16.9794H79.657V14.1669H89.2024C89.2024 13.5135 89.0604 12.9347 88.7763 12.4304C88.4922 11.9261 88.098 11.532 87.5938 11.2479C87.0966 10.9567 86.5178 10.8111 85.8572 10.8111C85.1683 10.8111 84.5575 10.9709 84.0249 11.2905C83.4993 11.603 83.0874 12.0256 82.7891 12.5582C82.4908 13.0838 82.3381 13.6697 82.331 14.3161V16.9901C82.331 17.7997 82.4801 18.4993 82.7784 19.0888C83.0838 19.6783 83.5135 20.1328 84.0675 20.4524C84.6214 20.772 85.2784 20.9318 86.0384 20.9318C86.5426 20.9318 87.0043 20.8608 87.4233 20.7188C87.8423 20.5767 88.201 20.3636 88.4993 20.0795C88.7976 19.7955 89.0249 19.4474 89.1811 19.0355L93.3786 19.3125C93.1655 20.321 92.7287 21.2017 92.0682 21.9545C91.4148 22.7003 90.5696 23.2827 89.5327 23.7017C88.5028 24.1136 87.3132 24.3196 85.9638 24.3196ZM100.974 14.5398V24H96.4361V7.63636H100.761V10.5234H100.953C101.315 9.57173 101.923 8.81889 102.775 8.26491C103.627 7.70384 104.661 7.4233 105.875 7.4233C107.011 7.4233 108.002 7.67187 108.847 8.16903C109.692 8.66619 110.349 9.37642 110.818 10.2997C111.287 11.2159 111.521 12.3097 111.521 13.581V24H106.983V14.3906C106.99 13.3892 106.734 12.608 106.216 12.0469C105.697 11.4787 104.984 11.1946 104.075 11.1946C103.464 11.1946 102.924 11.326 102.455 11.5888C101.994 11.8516 101.631 12.2351 101.369 12.7393C101.113 13.2365 100.982 13.8366 100.974 14.5398Z" fill="#151515"/>
<path d="M122.918 24H115.183V2.18182H122.982C125.176 2.18182 127.066 2.61861 128.649 3.49219C130.233 4.35866 131.451 5.60511 132.303 7.23153C133.163 8.85795 133.593 10.804 133.593 13.0696C133.593 15.3423 133.163 17.2955 132.303 18.929C131.451 20.5625 130.226 21.8161 128.628 22.6896C127.037 23.5632 125.134 24 122.918 24ZM119.796 20.0476H122.726C124.09 20.0476 125.237 19.8061 126.167 19.3232C127.105 18.8331 127.808 18.0767 128.276 17.054C128.752 16.0241 128.99 14.696 128.99 13.0696C128.99 11.4574 128.752 10.1399 128.276 9.11719C127.808 8.09446 127.108 7.34162 126.178 6.85866C125.247 6.37571 124.1 6.13423 122.737 6.13423H119.796V20.0476ZM136.924 24V7.63636H141.463V24H136.924ZM139.204 5.52699C138.529 5.52699 137.951 5.30327 137.468 4.85582C136.992 4.40128 136.754 3.85795 136.754 3.22585C136.754 2.60085 136.992 2.06463 137.468 1.61719C137.951 1.16264 138.529 0.935368 139.204 0.935368C139.879 0.935368 140.454 1.16264 140.93 1.61719C141.413 2.06463 141.654 2.60085 141.654 3.22585C141.654 3.85795 141.413 4.40128 140.93 4.85582C140.454 5.30327 139.879 5.52699 139.204 5.52699ZM149.764 24.3089C148.72 24.3089 147.79 24.1278 146.973 23.7656C146.156 23.3963 145.51 22.853 145.034 22.1357C144.566 21.4112 144.331 20.5092 144.331 19.4297C144.331 18.5206 144.498 17.7571 144.832 17.1392C145.166 16.5213 145.62 16.0241 146.195 15.6477C146.771 15.2713 147.424 14.9872 148.156 14.7955C148.894 14.6037 149.669 14.4688 150.478 14.3906C151.43 14.2912 152.197 14.1989 152.779 14.1136C153.362 14.0213 153.784 13.8864 154.047 13.7088C154.31 13.5312 154.441 13.2685 154.441 12.9205V12.8565C154.441 12.1818 154.228 11.6598 153.802 11.2905C153.383 10.9212 152.786 10.7365 152.012 10.7365C151.195 10.7365 150.546 10.9176 150.063 11.2798C149.58 11.6349 149.26 12.0824 149.104 12.6222L144.906 12.2812C145.119 11.2869 145.539 10.4276 146.164 9.70312C146.789 8.97159 147.595 8.41051 148.582 8.01989C149.576 7.62216 150.727 7.4233 152.034 7.4233C152.943 7.4233 153.813 7.52983 154.644 7.7429C155.482 7.95597 156.224 8.28622 156.87 8.73366C157.524 9.18111 158.039 9.75639 158.415 10.4595C158.791 11.1555 158.98 11.9901 158.98 12.9631V24H154.676V21.7308H154.548C154.285 22.2422 153.933 22.6932 153.493 23.0838C153.053 23.4673 152.524 23.7692 151.906 23.9893C151.288 24.2024 150.574 24.3089 149.764 24.3089ZM151.064 21.1768C151.732 21.1768 152.321 21.0455 152.833 20.7827C153.344 20.5128 153.745 20.1506 154.036 19.696C154.328 19.2415 154.473 18.7266 154.473 18.1513V16.4148C154.331 16.5071 154.136 16.5923 153.887 16.6705C153.646 16.7415 153.372 16.8089 153.067 16.8729C152.762 16.9297 152.456 16.983 152.151 17.0327C151.845 17.0753 151.568 17.1143 151.32 17.1499C150.787 17.228 150.322 17.3523 149.924 17.5227C149.526 17.6932 149.218 17.924 148.997 18.2152C148.777 18.4993 148.667 18.8544 148.667 19.2805C148.667 19.8984 148.891 20.3707 149.338 20.6974C149.793 21.017 150.368 21.1768 151.064 21.1768ZM162.501 24V7.63636H166.9V10.4915H167.071C167.369 9.47585 167.87 8.70881 168.573 8.19034C169.276 7.66477 170.086 7.40199 171.002 7.40199C171.229 7.40199 171.474 7.41619 171.737 7.4446C172 7.47301 172.231 7.51207 172.43 7.56179V11.5888C172.216 11.5249 171.922 11.468 171.545 11.4183C171.169 11.3686 170.824 11.3438 170.512 11.3438C169.844 11.3438 169.248 11.4893 168.722 11.7805C168.204 12.0646 167.792 12.4624 167.486 12.9737C167.188 13.4851 167.039 14.0746 167.039 14.7422V24H162.501ZM178.076 30.1364C177.501 30.1364 176.961 30.0902 176.456 29.9979C175.959 29.9126 175.547 29.8026 175.221 29.6676L176.243 26.2798C176.776 26.4432 177.256 26.532 177.682 26.5462C178.115 26.5604 178.488 26.4609 178.8 26.2479C179.12 26.0348 179.379 25.6726 179.578 25.1612L179.844 24.4688L173.974 7.63636H178.747L182.135 19.6534H182.305L185.725 7.63636H190.53L184.17 25.7685C183.864 26.6491 183.449 27.4162 182.923 28.0696C182.405 28.7301 181.748 29.2379 180.952 29.593C180.157 29.9553 179.198 30.1364 178.076 30.1364Z" fill="#FBFCFE"/>
</svg>
