<svg width="22" height="19" viewBox="0 0 22 19" fill="none" xmlns="http://www.w3.org/2000/svg">
<path d="M15.7942 7.27765L15.9426 7.5H16.21H21C21.2662 7.5 21.4873 7.71364 21.4995 7.97707L21.4774 8.17576L18.9492 17.4026C18.949 17.4035 18.9488 17.4043 18.9485 17.4051C18.7667 18.0374 18.1875 18.5 17.5 18.5H4.5C3.81066 18.5 3.23418 18.0359 3.06225 17.408L3.06223 17.4079L0.522225 8.13787L0.518636 8.12477L0.514342 8.11189C0.505876 8.08649 0.5 8.0528 0.5 8C0.5 7.72615 0.726142 7.5 1 7.5H5.79H6.05714L6.20563 7.27794L10.5856 0.72794L10.5857 0.727952L10.5882 0.724017C10.6717 0.59664 10.821 0.520004 11 0.520004C11.1803 0.520004 11.3323 0.597995 11.4154 0.719544C11.4157 0.719947 11.416 0.720351 11.4163 0.720755L15.7942 7.27765ZM11.416 2.52265L11 1.89862L10.584 2.52265L7.78397 6.72265L7.26574 7.5H8.2H13.8H14.7343L14.216 6.72265L11.416 2.52265ZM17.5004 17.5L17.8811 17.4997L17.9821 17.1326L20.1821 9.13258L20.3561 8.5H19.7H2.31H1.65416L1.82785 9.13243L4.02786 17.1424L4.12889 17.5103L4.51039 17.51L17.5004 17.5ZM9.5 13C9.5 12.1761 10.1761 11.5 11 11.5C11.8239 11.5 12.5 12.1761 12.5 13C12.5 13.8239 11.8239 14.5 11 14.5C10.1761 14.5 9.5 13.8239 9.5 13Z" fill="#474747" stroke="#474747"/>
</svg>
