<svg width="24" height="24" viewBox="0 0 24 24" fill="none" xmlns="http://www.w3.org/2000/svg">
<path d="M19 12.6466V12.4395V11H18.5V12.7499C18.5 12.7499 18.5 12.75 18.5 12.75C18.5 12.8163 18.5264 12.8798 18.5732 12.9266L18.5733 12.9267L20.6036 14.9569L20.75 15.1034V15.3105V16.5V17H20.25H3.75H3.25V16.5V15.3105V15.1034L3.39645 14.9569L5.4267 12.9267L5.42675 12.9266C5.47361 12.8798 5.49996 12.8163 5.5 12.75C5.5 12.75 5.5 12.7499 5.5 12.7499V9.7505V9.75H6C5.99791 8.6961 6.27398 7.6603 6.80032 6.74724C7.32665 5.83417 8.08463 5.07618 8.99767 4.5498C9.91072 4.02343 10.9465 3.74733 12.0004 3.74938C12.8658 3.75107 13.7183 3.94028 14.5 4.30133L19 12.6466ZM19 12.6466L19.1464 12.7931L21.1767 14.8233L21.1768 14.8234C21.2236 14.8702 21.25 14.9337 21.25 15C21.25 15 21.25 15.0001 21.25 15.0001V17.25C21.25 17.3163 21.2237 17.3799 21.1768 17.4268C21.1299 17.4737 21.0663 17.5 21 17.5H15.75H15.25V18V18.75C15.25 19.612 14.9076 20.4386 14.2981 21.0481C13.6886 21.6576 12.862 22 12 22C11.138 22 10.3114 21.6576 9.7019 21.0481C9.09241 20.4386 8.75 19.612 8.75 18.75V18V17.5H8.25H3C2.93369 17.5 2.87011 17.4737 2.82322 17.4268C2.77634 17.3799 2.75 17.3163 2.75 17.25V15.0001C2.75 15.0001 2.75 15 2.75 15C2.75004 14.9337 2.77639 14.8702 2.82325 14.8234L2.8233 14.8233L4.85355 12.7931L5 12.6466V12.4395V9.75025C5.00226 8.0155 5.64763 6.34319 6.81134 5.05664C7.97513 3.77001 9.57466 2.9606 11.3006 2.78493L11.75 2.73919V2.2875V1.25M19 12.6466L11.75 1.25M11.75 1.25H12.25V2.28825V2.73974L12.6991 2.78566C13.3166 2.84879 13.9223 2.99463 14.5 3.21888V3.75502C13.7113 3.42399 12.8623 3.25106 12.0014 3.24939L11.75 1.25ZM9.75 17.5H9.25V18V18.75C9.25 19.4793 9.53973 20.1788 10.0555 20.6945C10.5712 21.2103 11.2707 21.5 12 21.5C12.7293 21.5 13.4288 21.2103 13.9445 20.6945C14.4603 20.1788 14.75 19.4793 14.75 18.75V18V17.5H14.25H9.75Z" fill="#8C8C8D" stroke="#8C8C8D"/>
<path d="M22 6C22 7.38071 20.8807 8.5 19.5 8.5C18.1193 8.5 17 7.38071 17 6C17 4.61929 18.1193 3.5 19.5 3.5C20.8807 3.5 22 4.61929 22 6Z" fill="#AD1D1D" stroke="#8C8C8D"/>
</svg>
