<svg width="16" height="20" viewBox="0 0 16 20" fill="none" xmlns="http://www.w3.org/2000/svg">
<path d="M11.5 4V4.5H12H14C14.8239 4.5 15.5 5.17614 15.5 6V18C15.5 18.8239 14.8239 19.5 14 19.5H2C1.17614 19.5 0.5 18.8239 0.5 18V6C0.5 5.17614 1.17614 4.5 2 4.5H4H4.5V4C4.5 2.06614 6.06614 0.5 8 0.5C9.93386 0.5 11.5 2.06614 11.5 4ZM10 4.5H10.5V4C10.5 2.62386 9.37614 1.5 8 1.5C6.62386 1.5 5.5 2.62386 5.5 4V4.5H6H10ZM14 18.5H14.5V18V6V5.5H14H12H11.5V6V8C11.5 8.27386 11.2739 8.5 11 8.5C10.7261 8.5 10.5 8.27386 10.5 8V6V5.5H10H6H5.5V6V8C5.5 8.27386 5.27386 8.5 5 8.5C4.72614 8.5 4.5 8.27386 4.5 8V6V5.5H4H2H1.5V6V18V18.5H2H14Z" fill="#474747" stroke="#474747"/>
</svg>
